<?xml version="1.0" encoding="UTF-8" standalone="no"?>
<svg
   xmlns:dc="http://purl.org/dc/elements/1.1/"
   xmlns:cc="http://creativecommons.org/ns#"
   xmlns:rdf="http://www.w3.org/1999/02/22-rdf-syntax-ns#"
   xmlns:svg="http://www.w3.org/2000/svg"
   xmlns="http://www.w3.org/2000/svg"
   viewBox="0 0 1066.6667 800"
   height="800"
   width="1066.6667"
   xml:space="preserve"
   id="svg2"
   version="1.1"><metadata
     id="metadata8"><rdf:RDF><cc:Work
         rdf:about=""><dc:format>image/svg+xml</dc:format><dc:type
           rdf:resource="http://purl.org/dc/dcmitype/StillImage" /></cc:Work></rdf:RDF></metadata><defs
     id="defs6"><clipPath
       id="clipPath18"
       clipPathUnits="userSpaceOnUse"><path
         id="path16"
         d="M 0,0 H 800 V 600 H 0 Z" /></clipPath><radialGradient
       id="radialGradient34"
       spreadMethod="pad"
       gradientTransform="matrix(694.73761,0,0,-694.73761,121.2876,569.92139)"
       gradientUnits="userSpaceOnUse"
       r="1"
       cy="0"
       cx="0"
       fy="0"
       fx="0"><stop
         id="stop24"
         offset="0"
         style="stop-opacity:1;stop-color:#f8db94" /><stop
         id="stop26"
         offset="0.00605774"
         style="stop-opacity:1;stop-color:#f8db94" /><stop
         id="stop28"
         offset="0.278793"
         style="stop-opacity:1;stop-color:#6dc1d3" /><stop
         id="stop30"
         offset="0.94052972"
         style="stop-opacity:1;stop-color:#6dc1d3" /><stop
         id="stop32"
         offset="1"
         style="stop-opacity:1;stop-color:#6dc1d3" /></radialGradient><clipPath
       id="clipPath44"
       clipPathUnits="userSpaceOnUse"><path
         id="path42"
         d="M 0,600 H 800 V 0 H 0 Z" /></clipPath><clipPath
       id="clipPath56"
       clipPathUnits="userSpaceOnUse"><path
         id="path54"
         d="m 689.039,387.138 c -12.568,-7.694 -40.135,-30.568 -54.678,-33.192 v 0 c -14.543,-2.626 -25.482,1.03 -34.355,8.416 v 0 l -0.311,0.024 c -10.347,5.244 -25.776,-6.261 -44.172,-9.5 v 0 c -18.73,-3.297 -29.292,5.785 -29.277,17.24 v 0 c 0.015,11.455 6.76,18.06 12.307,18.09 v 0 c 2.424,0.012 3.264,-1.473 2.956,-2.958 v 0 c -0.36,-1.743 -2.299,-3.485 -5.113,-2.809 v 0 c 5.063,-3.014 6.831,0.802 8.157,4.615 v 0 c 1.189,3.413 6.074,-2.392 1.086,-4.078 v 0 c 4.217,-0.468 4.252,3.595 3.543,6.054 v 0 c -0.321,1.11 0.524,0.521 1.839,-0.068 v 0 c 1.606,-0.719 3.913,-1.438 5.652,0.939 v 0 c -9.334,-1.511 -6.371,5.103 -5.058,6.615 v 0 c -3.563,-3.264 -5.288,-0.652 -7.269,0.451 v 0 c -21.061,11.738 -42.741,-2.145 -55.307,-9.839 v 0 c -12.567,-7.694 -40.134,-30.568 -54.677,-33.192 v 0 c -14.544,-2.626 -25.483,1.03 -34.356,8.416 v 0 l -0.311,0.024 c -10.348,5.244 -25.777,-6.261 -44.173,-9.5 v 0 c -18.729,-3.297 -29.292,5.785 -29.276,17.24 v 0 c 0.016,11.455 6.759,18.06 12.307,18.09 v 0 c 2.424,0.012 3.263,-1.473 2.956,-2.958 v 0 c -0.36,-1.743 -2.3,-3.485 -5.113,-2.809 v 0 c 5.063,-3.014 6.831,0.802 8.156,4.615 v 0 c 1.189,3.413 6.074,-2.392 1.088,-4.078 v 0 c 4.215,-0.468 4.25,3.595 3.542,6.054 v 0 c -0.32,1.11 0.525,0.521 1.84,-0.068 v 0 c 1.605,-0.719 3.912,-1.438 5.652,0.939 v 0 c -9.335,-1.511 -6.372,5.103 -5.058,6.615 v 0 c -3.563,-3.264 -5.289,-0.652 -7.27,0.451 v 0 c -21.061,11.738 -42.74,-2.145 -55.307,-9.839 v 0 c -12.567,-7.694 -40.134,-30.568 -54.678,-33.192 v 0 c -14.542,-2.626 -25.483,1.03 -34.355,8.416 v 0 l -0.31,0.024 c -10.349,5.244 -25.777,-6.261 -44.173,-9.5 v 0 c -18.729,-3.297 -29.293,5.785 -29.277,17.24 v 0 c 0.016,11.455 6.76,18.06 12.306,18.09 v 0 c 2.424,0.012 3.265,-1.473 2.957,-2.958 v 0 c -0.36,-1.743 -2.3,-3.485 -5.113,-2.809 v 0 c 5.063,-3.014 6.831,0.802 8.157,4.615 v 0 c 1.189,3.413 6.074,-2.392 1.087,-4.078 v 0 c 4.215,-0.468 4.251,3.595 3.542,6.054 v 0 c -0.32,1.11 0.525,0.521 1.84,-0.068 v 0 c 1.605,-0.719 3.911,-1.438 5.651,0.939 v 0 c -9.334,-1.511 -6.371,5.103 -5.058,6.615 v 0 c -3.561,-3.264 -5.288,-0.652 -7.269,0.451 v 0 c -21.06,11.738 -42.74,-2.145 -55.307,-9.839 v 0 C 76.472,379.444 48.905,356.57 34.361,353.946 v 0 c -14.542,-2.626 -25.483,1.03 -34.355,8.416 v 0 L 0,0 h 800 v 362.578 c -10.382,4.388 -26.505,-6.528 -44.477,-9.692 v 0 c -18.73,-3.297 -29.292,5.785 -29.277,17.24 v 0 c 0.015,11.455 6.76,18.06 12.307,18.09 v 0 c 2.423,0.012 3.264,-1.473 2.956,-2.958 v 0 c -0.36,-1.743 -2.299,-3.485 -5.113,-2.809 v 0 c 5.063,-3.014 6.83,0.802 8.157,4.615 v 0 c 1.189,3.413 6.074,-2.392 1.086,-4.078 v 0 c 4.217,-0.468 4.252,3.595 3.543,6.054 v 0 c -0.321,1.11 0.524,0.521 1.839,-0.068 v 0 c 1.606,-0.719 3.912,-1.438 5.653,0.939 v 0 c -9.336,-1.511 -6.371,5.103 -5.059,6.615 v 0 c -3.562,-3.264 -5.288,-0.652 -7.269,0.451 v 0 c -5.823,3.246 -11.697,4.532 -17.409,4.533 v 0 c -14.947,0.001 -28.806,-8.806 -37.898,-14.372" /></clipPath><linearGradient
       id="linearGradient66"
       spreadMethod="pad"
       gradientTransform="matrix(-1.53e-5,401.50928,401.50928,1.53e-5,400.50342,0)"
       gradientUnits="userSpaceOnUse"
       y2="0"
       x2="1"
       y1="0"
       x1="0"><stop
         id="stop62"
         offset="0"
         style="stop-opacity:1;stop-color:#526b7e" /><stop
         id="stop64"
         offset="1"
         style="stop-opacity:1;stop-color:#82a5c0" /></linearGradient><clipPath
       id="clipPath76"
       clipPathUnits="userSpaceOnUse"><path
         id="path74"
         d="M 0,600 H 800 V 0 H 0 Z" /></clipPath></defs><g
     transform="matrix(1.3333333,0,0,-1.3333333,0,800)"
     id="g10"><g
       id="g12"><g
         clip-path="url(#clipPath18)"
         id="g14"><g
           id="g20"><g
             id="g22"><path
               id="path36"
               style="fill:url(#radialGradient34);stroke:none"
               d="M 0,0 H 800 V 600 H 0 Z" /></g></g></g></g><g
       id="g38"><g
         clip-path="url(#clipPath44)"
         id="g40"><g
           transform="translate(199.6953,362.3857)"
           id="g46"><path
             id="path48"
             style="fill:#ffffff;fill-opacity:1;fill-rule:nonzero;stroke:none"
             d="M 0,0 C 0.187,-0.095 0.376,-0.183 0.561,-0.289 0.452,-0.176 0.255,-0.081 0,0" /></g></g></g><g
       id="g50"><g
         clip-path="url(#clipPath56)"
         id="g52"><g
           id="g58"><g
             id="g60"><path
               id="path68"
               style="fill:url(#linearGradient66);stroke:none"
               d="m 689.039,387.138 c -12.568,-7.694 -40.135,-30.568 -54.678,-33.192 v 0 c -14.543,-2.626 -25.482,1.03 -34.355,8.416 v 0 l -0.311,0.024 c -10.347,5.244 -25.776,-6.261 -44.172,-9.5 v 0 c -18.73,-3.297 -29.292,5.785 -29.277,17.24 v 0 c 0.015,11.455 6.76,18.06 12.307,18.09 v 0 c 2.424,0.012 3.264,-1.473 2.956,-2.958 v 0 c -0.36,-1.743 -2.299,-3.485 -5.113,-2.809 v 0 c 5.063,-3.014 6.831,0.802 8.157,4.615 v 0 c 1.189,3.413 6.074,-2.392 1.086,-4.078 v 0 c 4.217,-0.468 4.252,3.595 3.543,6.054 v 0 c -0.321,1.11 0.524,0.521 1.839,-0.068 v 0 c 1.606,-0.719 3.913,-1.438 5.652,0.939 v 0 c -9.334,-1.511 -6.371,5.103 -5.058,6.615 v 0 c -3.563,-3.264 -5.288,-0.652 -7.269,0.451 v 0 c -21.061,11.738 -42.741,-2.145 -55.307,-9.839 v 0 c -12.567,-7.694 -40.134,-30.568 -54.677,-33.192 v 0 c -14.544,-2.626 -25.483,1.03 -34.356,8.416 v 0 l -0.311,0.024 c -10.348,5.244 -25.777,-6.261 -44.173,-9.5 v 0 c -18.729,-3.297 -29.292,5.785 -29.276,17.24 v 0 c 0.016,11.455 6.759,18.06 12.307,18.09 v 0 c 2.424,0.012 3.263,-1.473 2.956,-2.958 v 0 c -0.36,-1.743 -2.3,-3.485 -5.113,-2.809 v 0 c 5.063,-3.014 6.831,0.802 8.156,4.615 v 0 c 1.189,3.413 6.074,-2.392 1.088,-4.078 v 0 c 4.215,-0.468 4.25,3.595 3.542,6.054 v 0 c -0.32,1.11 0.525,0.521 1.84,-0.068 v 0 c 1.605,-0.719 3.912,-1.438 5.652,0.939 v 0 c -9.335,-1.511 -6.372,5.103 -5.058,6.615 v 0 c -3.563,-3.264 -5.289,-0.652 -7.27,0.451 v 0 c -21.061,11.738 -42.74,-2.145 -55.307,-9.839 v 0 c -12.567,-7.694 -40.134,-30.568 -54.678,-33.192 v 0 c -14.542,-2.626 -25.483,1.03 -34.355,8.416 v 0 l -0.31,0.024 c -10.349,5.244 -25.777,-6.261 -44.173,-9.5 v 0 c -18.729,-3.297 -29.293,5.785 -29.277,17.24 v 0 c 0.016,11.455 6.76,18.06 12.306,18.09 v 0 c 2.424,0.012 3.265,-1.473 2.957,-2.958 v 0 c -0.36,-1.743 -2.3,-3.485 -5.113,-2.809 v 0 c 5.063,-3.014 6.831,0.802 8.157,4.615 v 0 c 1.189,3.413 6.074,-2.392 1.087,-4.078 v 0 c 4.215,-0.468 4.251,3.595 3.542,6.054 v 0 c -0.32,1.11 0.525,0.521 1.84,-0.068 v 0 c 1.605,-0.719 3.911,-1.438 5.651,0.939 v 0 c -9.334,-1.511 -6.371,5.103 -5.058,6.615 v 0 c -3.561,-3.264 -5.288,-0.652 -7.269,0.451 v 0 c -21.06,11.738 -42.74,-2.145 -55.307,-9.839 v 0 C 76.472,379.444 48.905,356.57 34.361,353.946 v 0 c -14.542,-2.626 -25.483,1.03 -34.355,8.416 v 0 L 0,0 h 800 v 362.578 c -10.382,4.388 -26.505,-6.528 -44.477,-9.692 v 0 c -18.73,-3.297 -29.292,5.785 -29.277,17.24 v 0 c 0.015,11.455 6.76,18.06 12.307,18.09 v 0 c 2.423,0.012 3.264,-1.473 2.956,-2.958 v 0 c -0.36,-1.743 -2.299,-3.485 -5.113,-2.809 v 0 c 5.063,-3.014 6.83,0.802 8.157,4.615 v 0 c 1.189,3.413 6.074,-2.392 1.086,-4.078 v 0 c 4.217,-0.468 4.252,3.595 3.543,6.054 v 0 c -0.321,1.11 0.524,0.521 1.839,-0.068 v 0 c 1.606,-0.719 3.912,-1.438 5.653,0.939 v 0 c -9.336,-1.511 -6.371,5.103 -5.059,6.615 v 0 c -3.562,-3.264 -5.288,-0.652 -7.269,0.451 v 0 c -5.823,3.246 -11.697,4.532 -17.409,4.533 v 0 c -14.947,0.001 -28.806,-8.806 -37.898,-14.372" /></g></g></g></g><g
       id="g70"><g
         clip-path="url(#clipPath76)"
         id="g72"><g
           transform="translate(0.0063,362.3623)"
           id="g78"><path
             id="path80"
             style="fill:#ffffff;fill-opacity:1;fill-rule:nonzero;stroke:none"
             d="m 0,0 c 8.872,-7.386 19.813,-11.042 34.354,-8.417 14.544,2.625 42.111,25.499 54.678,33.192 12.568,7.694 34.247,21.578 55.308,9.84 1.981,-1.103 3.707,-3.715 7.269,-0.45 -1.313,-1.513 -4.276,-8.127 5.058,-6.616 -3.163,-4.324 -8.202,1.596 -7.491,-0.871 0.708,-2.46 0.673,-6.522 -3.543,-6.054 4.988,1.685 0.102,7.49 -1.087,4.078 -1.326,-3.812 -3.093,-7.629 -8.156,-4.616 5.213,-1.251 7.424,5.795 2.156,5.768 -5.547,-0.03 -12.291,-6.635 -12.306,-18.091 -0.016,-11.455 10.547,-20.536 29.277,-17.239 18.729,3.297 34.385,15.176 44.733,9.21 -1.449,1.501 -16.963,0.244 -18.513,-5.042 -1.549,-5.285 1.97,-9.915 10.12,-9.927 -1.986,-3.738 -6.849,1.55 -10.358,-3.51 1.988,3.856 1.431,13.501 -14.968,9.051 -14.545,-3.946 -17.198,-11.212 -13.015,-13.201 -3.523,1.328 -10.579,-3.949 -16.08,1.344 10.13,-2.417 19.823,5.493 8.302,8.22 -14.976,3.545 -30.534,4.929 -30.513,20.951 0.024,18.221 22.049,14.888 22.059,21.938 0.007,4.847 -13.25,14.545 -40.101,-4.794 -35.722,-25.727 -19.222,-41.827 -49.191,-49.722 5.05,1.756 13.003,4.834 18.089,19.147 3.65,10.274 -4.175,8.373 -11.452,2.874 -7.276,-5.498 -24.486,-25.737 -48.931,-19.761 16.078,-2.224 30.405,6.382 27.991,10.096 C 31.275,-8.887 9.233,-14.551 0,0" /></g><g
           transform="translate(200.2559,362.3623)"
           id="g82"><path
             id="path84"
             style="fill:#ffffff;fill-opacity:1;fill-rule:nonzero;stroke:none"
             d="m 0,0 c 8.872,-7.386 19.813,-11.042 34.355,-8.417 14.543,2.625 42.11,25.499 54.677,33.192 12.568,7.694 34.247,21.578 55.308,9.84 1.981,-1.103 3.707,-3.715 7.269,-0.45 -1.313,-1.513 -4.276,-8.127 5.058,-6.616 -3.163,-4.324 -8.202,1.596 -7.491,-0.871 0.708,-2.46 0.673,-6.522 -3.543,-6.054 4.988,1.685 0.102,7.49 -1.087,4.078 -1.326,-3.812 -3.093,-7.629 -8.156,-4.616 5.213,-1.251 7.424,5.795 2.156,5.768 -5.547,-0.03 -12.291,-6.635 -12.306,-18.091 -0.016,-11.455 10.547,-20.536 29.277,-17.239 18.729,3.297 34.385,15.176 44.733,9.21 -1.449,1.501 -16.963,0.244 -18.513,-5.042 -1.549,-5.285 1.97,-9.915 10.121,-9.927 -1.987,-3.738 -6.85,1.55 -10.359,-3.51 1.988,3.856 1.431,13.501 -14.967,9.051 -14.546,-3.946 -17.199,-11.212 -13.016,-13.201 -3.523,1.328 -10.579,-3.949 -16.08,1.344 10.13,-2.417 19.823,5.493 8.303,8.22 -14.976,3.545 -30.535,4.929 -30.514,20.951 0.024,18.221 22.05,14.888 22.059,21.938 0.007,4.847 -13.25,14.545 -40.101,-4.794 -35.722,-25.727 -19.221,-41.827 -49.191,-49.722 5.05,1.756 13.003,4.834 18.089,19.147 3.65,10.274 -4.175,8.373 -11.452,2.874 -7.276,-5.498 -24.486,-25.737 -48.931,-19.761 16.079,-2.224 30.405,6.382 27.991,10.096 C 31.275,-8.887 9.233,-14.551 0,0" /></g><g
           transform="translate(400.5063,362.3623)"
           id="g86"><path
             id="path88"
             style="fill:#ffffff;fill-opacity:1;fill-rule:nonzero;stroke:none"
             d="m 0,0 c 8.872,-7.386 19.812,-11.042 34.355,-8.417 14.544,2.625 42.109,25.499 54.677,33.192 12.567,7.694 34.247,21.578 55.307,9.84 1.983,-1.103 3.707,-3.715 7.27,-0.45 -1.313,-1.513 -4.276,-8.127 5.058,-6.616 -3.164,-4.324 -8.202,1.596 -7.492,-0.871 0.709,-2.46 0.673,-6.522 -3.542,-6.054 4.987,1.685 0.102,7.49 -1.087,4.078 -1.327,-3.812 -3.093,-7.629 -8.156,-4.616 5.212,-1.251 7.424,5.795 2.155,5.768 -5.546,-0.03 -12.29,-6.635 -12.305,-18.091 -0.016,-11.455 10.548,-20.536 29.276,-17.239 18.729,3.297 34.386,15.176 44.734,9.21 -1.448,1.501 -16.963,0.244 -18.513,-5.042 -1.55,-5.285 1.97,-9.915 10.121,-9.927 -1.988,-3.738 -6.85,1.55 -10.359,-3.51 1.989,3.856 1.43,13.501 -14.967,9.051 -14.546,-3.946 -17.199,-11.212 -13.016,-13.201 -3.523,1.328 -10.579,-3.949 -16.08,1.344 10.13,-2.417 19.823,5.493 8.303,8.22 -14.977,3.545 -30.536,4.929 -30.514,20.951 0.024,18.221 22.05,14.888 22.059,21.938 0.007,4.847 -13.25,14.545 -40.101,-4.794 C 61.46,-0.963 77.961,-17.063 47.992,-24.958 c 5.05,1.756 13.003,4.834 18.089,19.147 3.65,10.274 -4.175,8.373 -11.452,2.874 -7.277,-5.498 -24.486,-25.737 -48.931,-19.761 16.079,-2.224 30.404,6.382 27.991,10.096 C 31.275,-8.887 9.233,-14.551 0,0" /></g><g
           transform="translate(600.7559,362.3623)"
           id="g90"><path
             id="path92"
             style="fill:#ffffff;fill-opacity:1;fill-rule:nonzero;stroke:none"
             d="m 0,0 c 8.872,-7.386 19.813,-11.042 34.355,-8.417 14.543,2.625 42.11,25.499 54.676,33.192 12.569,7.694 34.248,21.578 55.309,9.84 1.981,-1.103 3.708,-3.715 7.268,-0.45 -1.312,-1.513 -4.276,-8.127 5.059,-6.616 -3.162,-4.324 -8.201,1.596 -7.491,-0.871 0.708,-2.46 0.673,-6.522 -3.542,-6.054 4.987,1.685 0.101,7.49 -1.087,4.078 -1.326,-3.812 -3.094,-7.629 -8.157,-4.616 5.213,-1.251 7.423,5.795 2.156,5.768 -5.548,-0.03 -12.29,-6.635 -12.306,-18.091 -0.016,-11.455 10.547,-20.536 29.277,-17.239 18.729,3.297 34.386,15.176 44.733,9.21 -1.448,1.501 -16.964,0.244 -18.514,-5.042 -1.548,-5.285 1.97,-9.915 10.121,-9.927 -1.987,-3.738 -6.849,1.55 -10.358,-3.51 1.988,3.856 1.431,13.501 -14.968,9.051 -14.545,-3.946 -17.198,-11.212 -13.015,-13.201 -3.523,1.328 -10.579,-3.949 -16.08,1.344 10.13,-2.417 19.823,5.493 8.302,8.22 -14.976,3.545 -30.534,4.929 -30.512,20.951 0.023,18.221 22.048,14.888 22.058,21.938 0.007,4.847 -13.25,14.545 -40.101,-4.794 -35.721,-25.727 -19.221,-41.827 -49.192,-49.722 5.051,1.756 13.005,4.834 18.089,19.147 3.651,10.274 -4.174,8.373 -11.451,2.874 -7.276,-5.498 -24.486,-25.737 -48.931,-19.761 16.078,-2.224 30.405,6.382 27.99,10.096 C 31.275,-8.887 9.233,-14.551 0,0" /></g><g
           transform="translate(0.0146,253.8906)"
           id="g94"><path
             id="path96"
             style="fill:#ffffff;fill-opacity:1;fill-rule:nonzero;stroke:none"
             d="m 0,0 c 11.839,-9.855 26.439,-14.734 45.845,-11.231 19.408,3.501 56.194,34.026 72.964,44.293 16.771,10.266 45.701,28.792 73.806,13.13 2.644,-1.472 4.947,-4.958 9.701,-0.601 -1.753,-2.019 -5.707,-10.844 6.749,-8.827 -4.221,-5.771 -10.945,2.128 -9.997,-1.162 0.946,-3.285 0.898,-8.705 -4.727,-8.081 6.656,2.249 0.136,9.996 -1.45,5.441 -1.77,-5.086 -4.129,-10.18 -10.885,-6.158 6.956,-1.671 9.907,7.732 2.878,7.697 -7.403,-0.041 -16.402,-8.856 -16.423,-24.142 -0.021,-15.286 14.075,-27.406 39.069,-23.005 24.993,4.399 45.887,20.253 59.695,12.292 -1.933,2.002 -22.638,0.325 -24.704,-6.73 -2.068,-7.053 2.627,-13.232 13.504,-13.246 -2.651,-4.989 -9.14,2.068 -13.823,-4.684 2.653,5.146 1.909,18.016 -19.973,12.078 -19.41,-5.267 -22.95,-14.963 -17.369,-17.616 -4.701,1.771 -14.117,-5.271 -21.458,1.792 13.519,-3.224 26.452,7.331 11.079,10.971 -19.984,4.729 -40.747,6.576 -40.718,27.957 0.031,24.316 29.424,19.868 29.436,29.276 0.009,6.468 -17.681,19.409 -53.512,-6.399 -47.67,-34.329 -25.651,-55.815 -65.644,-66.352 6.739,2.343 17.352,6.453 24.139,25.552 C 93.053,5.956 82.611,3.418 72.901,-3.918 63.189,-11.256 40.224,-38.266 7.603,-30.29 29.06,-33.257 48.177,-21.772 44.956,-16.817 41.735,-11.859 12.321,-19.418 0,0" /></g><g
           transform="translate(267.2393,253.8906)"
           id="g98"><path
             id="path100"
             style="fill:#ffffff;fill-opacity:1;fill-rule:nonzero;stroke:none"
             d="m 0,0 c 11.839,-9.855 26.438,-14.734 45.845,-11.231 19.407,3.501 56.194,34.026 72.964,44.293 16.77,10.266 45.701,28.792 73.805,13.13 2.645,-1.472 4.949,-4.958 9.701,-0.601 -1.752,-2.019 -5.707,-10.844 6.749,-8.827 -4.22,-5.771 -10.944,2.128 -9.997,-1.162 0.947,-3.285 0.899,-8.705 -4.725,-8.081 6.654,2.249 0.135,9.996 -1.451,5.441 -1.77,-5.086 -4.128,-10.18 -10.885,-6.158 6.956,-1.671 9.907,7.732 2.878,7.697 -7.403,-0.041 -16.403,-8.856 -16.423,-24.142 -0.021,-15.286 14.075,-27.406 39.068,-23.005 24.994,4.399 45.887,20.253 59.695,12.292 -1.933,2.002 -22.636,0.325 -24.703,-6.73 -2.068,-7.053 2.627,-13.232 13.503,-13.246 -2.65,-4.989 -9.14,2.068 -13.822,-4.684 2.653,5.146 1.909,18.016 -19.973,12.078 -19.411,-5.267 -22.951,-14.963 -17.369,-17.616 -4.701,1.771 -14.118,-5.271 -21.459,1.792 13.52,-3.224 26.453,7.331 11.08,10.971 -19.985,4.729 -40.747,6.576 -40.719,27.957 0.033,24.316 29.425,19.868 29.437,29.276 0.009,6.468 -17.681,19.409 -53.512,-6.399 -47.67,-34.329 -25.651,-55.815 -65.644,-66.352 6.739,2.343 17.352,6.453 24.138,25.552 C 93.053,5.956 82.611,3.418 72.9,-3.918 63.189,-11.256 40.224,-38.266 7.603,-30.29 29.06,-33.257 48.177,-21.772 44.956,-16.817 41.735,-11.859 12.321,-19.418 0,0" /></g><g
           transform="translate(0.0083,102.373)"
           id="g102"><path
             id="path104"
             style="fill:#ffffff;fill-opacity:1;fill-rule:nonzero;stroke:none"
             d="m 0,0 c 17.71,-14.742 39.548,-22.04 68.577,-16.8 29.031,5.237 84.057,50.898 109.143,66.255 25.086,15.358 68.361,43.069 110.401,19.642 3.955,-2.203 7.4,-7.416 14.511,-0.9 -2.621,-3.019 -8.536,-16.22 10.097,-13.204 -6.314,-8.632 -16.373,3.183 -14.955,-1.738 1.415,-4.913 1.343,-13.021 -7.07,-12.088 9.956,3.363 0.203,14.952 -2.17,8.139 -2.647,-7.608 -6.176,-15.227 -16.282,-9.211 10.406,-2.5 14.82,11.566 4.305,11.513 -11.073,-0.061 -24.534,-13.248 -24.565,-36.112 -0.032,-22.865 21.053,-40.995 58.44,-34.411 37.385,6.579 68.639,30.295 89.294,18.385 -2.892,2.996 -33.862,0.486 -36.954,-10.067 -3.092,-10.549 3.931,-19.793 20.202,-19.813 -3.967,-7.463 -13.674,3.094 -20.678,-7.006 3.969,7.696 2.856,26.948 -29.878,18.066 -29.033,-7.879 -34.329,-22.382 -25.98,-26.35 -7.032,2.648 -21.117,-7.886 -32.097,2.68 20.222,-4.824 39.568,10.966 16.573,16.411 -29.895,7.074 -60.952,9.837 -60.91,41.819 0.048,36.373 44.015,29.72 44.033,43.793 0.012,9.675 -26.449,29.031 -80.046,-9.573 -71.306,-51.351 -38.369,-83.49 -98.193,-99.251 10.08,3.505 25.956,9.651 36.108,38.221 7.287,20.509 -8.333,16.713 -22.858,5.74 C 94.521,-16.837 60.169,-57.239 11.373,-45.309 43.468,-49.747 72.065,-32.568 67.247,-25.156 62.429,-17.739 18.431,-29.046 0,0" /></g><g
           transform="translate(399.7339,102.373)"
           id="g106"><path
             id="path108"
             style="fill:#ffffff;fill-opacity:1;fill-rule:nonzero;stroke:none"
             d="m 0,0 c 17.709,-14.742 39.548,-22.04 68.577,-16.8 29.031,5.237 84.057,50.898 109.142,66.255 25.086,15.358 68.362,43.069 110.402,19.642 3.956,-2.203 7.401,-7.416 14.511,-0.9 -2.621,-3.019 -8.537,-16.22 10.095,-13.204 -6.313,-8.632 -16.37,3.183 -14.953,-1.738 1.415,-4.913 1.344,-13.021 -7.069,-12.088 9.954,3.363 0.202,14.952 -2.171,8.139 -2.647,-7.608 -6.175,-15.227 -16.282,-9.211 10.406,-2.5 14.82,11.566 4.305,11.513 -11.073,-0.061 -24.535,-13.248 -24.566,-36.112 -0.031,-22.865 21.054,-40.995 58.44,-34.411 37.388,6.579 68.64,30.295 89.293,18.385 -2.891,2.996 -33.859,0.486 -36.952,-10.067 -3.092,-10.549 3.932,-19.793 20.2,-19.813 -3.965,-7.463 -13.673,3.094 -20.676,-7.006 3.969,7.696 2.856,26.948 -29.878,18.066 -29.034,-7.879 -34.329,-22.382 -25.979,-26.35 -7.032,2.648 -21.119,-7.886 -32.1,2.68 20.224,-4.824 39.571,10.966 16.575,16.411 -29.895,7.074 -60.952,9.837 -60.911,41.819 0.05,36.373 44.015,29.72 44.035,43.793 0.012,9.675 -26.45,29.031 -80.047,-9.573 -71.307,-51.351 -38.369,-83.49 -98.193,-99.251 10.081,3.505 25.956,9.651 36.107,38.221 7.287,20.509 -8.332,16.713 -22.858,5.74 C 94.522,-16.837 60.169,-57.239 11.374,-45.309 43.468,-49.747 72.065,-32.568 67.248,-25.156 62.429,-17.739 18.431,-29.046 0,0" /></g><g
           transform="translate(534.4648,253.8906)"
           id="g110"><path
             id="path112"
             style="fill:#ffffff;fill-opacity:1;fill-rule:nonzero;stroke:none"
             d="m 0,0 c 11.839,-9.855 26.438,-14.734 45.844,-11.231 19.408,3.501 56.194,34.026 72.965,44.293 16.77,10.266 45.701,28.792 73.805,13.13 2.645,-1.472 4.948,-4.958 9.701,-0.601 -1.752,-2.019 -5.706,-10.844 6.749,-8.827 -4.22,-5.771 -10.944,2.128 -9.997,-1.162 0.947,-3.285 0.898,-8.705 -4.726,-8.081 6.654,2.249 0.136,9.996 -1.451,5.441 -1.771,-5.086 -4.128,-10.18 -10.884,-6.158 6.956,-1.671 9.907,7.732 2.877,7.697 -7.403,-0.041 -16.401,-8.856 -16.422,-24.142 -0.022,-15.286 14.075,-27.406 39.068,-23.005 24.992,4.399 45.887,20.253 59.694,12.292 -1.931,2.002 -22.635,0.325 -24.703,-6.73 -2.069,-7.053 2.627,-13.232 13.504,-13.246 -2.652,-4.989 -9.139,2.068 -13.822,-4.684 2.653,5.146 1.907,18.016 -19.973,12.078 -19.412,-5.267 -22.953,-14.963 -17.37,-17.616 -4.702,1.771 -14.116,-5.271 -21.458,1.792 13.518,-3.224 26.454,7.331 11.08,10.971 -19.986,4.729 -40.748,6.576 -40.719,27.957 0.031,24.316 29.426,19.868 29.436,29.276 0.009,6.468 -17.68,19.409 -53.512,-6.399 -47.669,-34.329 -25.651,-55.815 -65.643,-66.352 6.738,2.343 17.352,6.453 24.139,25.552 C 93.052,5.956 82.611,3.418 72.901,-3.918 63.188,-11.256 40.223,-38.266 7.603,-30.29 29.06,-33.257 48.176,-21.772 44.956,-16.817 41.734,-11.859 12.321,-19.418 0,0" /></g></g></g></g></svg>